<svg xmlns="http://www.w3.org/2000/svg" version="1.1" xmlns:xlink="http://www.w3.org/1999/xlink" xmlns:svgjs="http://svgjs.dev/svgjs" width="1000" height="186" viewBox="0 0 1000 186"><g transform="matrix(1,0,0,1,-0.606058309419268,0.22803860484935967)"><svg viewBox="0 0 396 74" data-background-color="#ffffff" preserveAspectRatio="xMidYMid meet" height="186" width="1000" xmlns="http://www.w3.org/2000/svg" xmlns:xlink="http://www.w3.org/1999/xlink"><g id="tight-bounds" transform="matrix(1,0,0,1,0.2399990905300342,-0.09072503633791484)"><svg viewBox="0 0 395.52 74.18145007267582" height="74.18145007267582" width="395.52"><g><svg viewBox="0 0 500.5020973338034 93.87128677345538" height="74.18145007267582" width="395.52"><g><rect width="3.8851622987827557" height="93.87128677345538" x="90.92635310103434" y="0" fill="#000000" opacity="1" stroke-width="0" stroke="transparent" fill-opacity="1" class="rect-o-0" data-fill-palette-color="primary" rx="1%" id="o-0" data-palette-color="#000000"></rect></g><g transform="matrix(1,0,0,1,104.98209733380337,0.2335106636155544)"><svg viewBox="0 0 395.52000000000004 93.40426544622427" height="93.40426544622427" width="395.52000000000004"><g id="textblocktransform"><svg viewBox="0 0 395.52000000000004 93.40426544622427" height="93.40426544622427" width="395.52000000000004" id="textblock"><g><svg viewBox="0 0 395.52000000000004 93.40426544622427" height="93.40426544622427" width="395.52000000000004"><g transform="matrix(1,0,0,1,0,0)"><svg width="395.52000000000004" viewBox="1.7499980926513672 -34.29999923706055 327.75 73.69999694824219" height="93.40426544622427" data-palette-color="#000000"><svg></svg><svg></svg><g class="wordmark-text-0" data-fill-palette-color="primary" id="text-0"><path xmlns="http://www.w3.org/2000/svg" d="M28.55-17.85c4.8 1.267 7.2 4.033 7.2 8.3v0c0 3.033-1.15 5.383-3.45 7.05-2.3 1.667-5.617 2.5-9.95 2.5v0h-20.6v-5.25h6v-23.8h-6v-5.25h19.7c3.733 0 6.61 0.833 8.63 2.5 2.013 1.667 3.02 3.867 3.02 6.6v0c0 1.667-0.407 3.117-1.22 4.35-0.82 1.233-1.93 2.233-3.33 3zM21.05-29.05h-6.8v9.5h5.6c4.433 0 6.65-1.617 6.65-4.85v0c0-1.633-0.523-2.817-1.57-3.55-1.053-0.733-2.347-1.1-3.88-1.1zM21.85-5.25c4.833 0 7.25-1.6 7.25-4.8v0c0-1.633-0.59-2.827-1.77-3.58-1.187-0.747-2.93-1.137-5.23-1.17v0h-7.85v9.55zM82.55-29.05h-6v23.8h6v5.25h-18.65v-5.25h6v-9.75h-17.65v9.75h6v5.25h-18.65v-5.25h6v-23.8h-6v-5.25h18.65v5.25h-6v9.1h17.65v-9.1h-6v-5.25h18.65zM121.15-5.25h4.8v5.25h-16.95v-5.25h5.25l-2.5-6.5h-13.65l-2.5 6.5h5.75v5.25h-16.7v-5.25h4.7l10.15-23.85h-4.3v-5.2h20.05v5.2h-4.35zM99.9-16.45h10.05l-4.9-12.65h-0.25zM164.2-7.2l3.1 4.3c-0.933 1.067-1.983 1.933-3.15 2.6-1.167 0.667-2.6 1-4.3 1v0c-3.067 0-5.623-1.077-7.67-3.23-2.053-2.147-3.647-5.487-4.78-10.02v0l-0.5-1.6h-6.15v8.95h5.85v5.2h-18.5v-5.25h6v-23.8h-6v-5.25h20.2c4.033 0 7.243 0.89 9.63 2.67 2.38 1.787 3.57 4.247 3.57 7.38v0c0 2.6-0.76 4.733-2.28 6.4-1.513 1.667-3.67 2.783-6.47 3.35v0l0.55 1.55c0.9 2.733 1.927 4.673 3.08 5.82 1.147 1.153 2.437 1.73 3.87 1.73v0c1.5 0 2.817-0.6 3.95-1.8zM140.75-29.05v10h7.75c1.767 0 3.283-0.443 4.55-1.33 1.267-0.88 1.9-2.17 1.9-3.87v0c0-1.567-0.617-2.76-1.85-3.58-1.233-0.813-2.767-1.22-4.6-1.22v0zM184.9-34.3c3.5 0 6.773 0.623 9.82 1.87 3.053 1.253 5.523 3.163 7.41 5.73 1.88 2.567 2.82 5.75 2.82 9.55v0c0 3.767-0.94 6.94-2.82 9.52-1.887 2.587-4.357 4.503-7.41 5.75-3.047 1.253-6.32 1.88-9.82 1.88v0h-16.95v-5.25h6v-23.8h-6v-5.25zM184.2-5.25c3.867 0 7.14-0.9 9.82-2.7 2.687-1.8 4.03-4.867 4.03-9.2v0c0-4.333-1.343-7.4-4.03-9.2-2.68-1.8-5.953-2.7-9.82-2.7v0h-3.6v23.8zM264.45-34.3v5.25h-5.25l-10.65 29.7h-3.4l-10.35-23.2-9.6 23.2h-3.35l-10.8-29.7h-5.15v-5.25h17.55v5.25h-5.45l6.25 18.95 9.15-23.5h3.75l9.8 23.65 5.9-19.1h-5.55v-5.25zM297.15-5.25h4.8v5.25h-16.95v-5.25h5.25l-2.5-6.5h-13.65l-2.5 6.5h5.75v5.25h-16.7v-5.25h4.7l10.15-23.85h-4.3v-5.2h20.05v5.2h-4.35zM275.9-16.45h10.05l-4.9-12.65h-0.25zM329.5-34.3v5.25h-5.9v17.9c0 2.433-0.517 4.54-1.55 6.32-1.033 1.787-2.45 3.147-4.25 4.08-1.8 0.933-3.8 1.4-6 1.4v0c-2.1 0-4.067-0.35-5.9-1.05-1.833-0.7-3.317-1.567-4.45-2.6v0l2.75-4.55c2.5 1.867 4.85 2.8 7.05 2.8v0c1.767 0 3.167-0.533 4.2-1.6 1.033-1.067 1.55-2.75 1.55-5.05v0l-0.1-17.65h-8.65v-5.25z" fill="#000000" fill-rule="nonzero" stroke="none" stroke-width="1" stroke-linecap="butt" stroke-linejoin="miter" stroke-miterlimit="10" stroke-dasharray="" stroke-dashoffset="0" font-family="none" font-weight="none" font-size="none" text-anchor="none" style="mix-blend-mode: normal" data-fill-palette-color="primary" opacity="1"></path><path xmlns="http://www.w3.org/2000/svg" d="M31.75 27.45l4.3 3.5c-1.767 2.6-3.957 4.65-6.57 6.15-2.62 1.5-5.663 2.25-9.13 2.25v0c-3.367 0-6.44-0.767-9.22-2.3-2.787-1.533-4.987-3.65-6.6-6.35-1.62-2.7-2.43-5.717-2.43-9.05v0c0-3.467 0.767-6.567 2.3-9.3 1.533-2.733 3.593-4.86 6.18-6.38 2.58-1.513 5.37-2.27 8.37-2.27v0c4.3 0 7.783 1.433 10.45 4.3v0-3.6h5.95v11.55l-4.3 0.4c-1.033-2.267-2.467-4.067-4.3-5.4-1.833-1.333-4.1-2-6.8-2v0c-1.9 0-3.69 0.507-5.37 1.52-1.687 1.02-3.037 2.487-4.05 4.4-1.02 1.92-1.53 4.147-1.53 6.68v0c0 2.333 0.5 4.44 1.5 6.32 1 1.887 2.367 3.37 4.1 4.45 1.733 1.087 3.65 1.63 5.75 1.63v0c2.6 0 4.793-0.56 6.58-1.68 1.78-1.113 3.387-2.72 4.82-4.82zM73.8 33.45h4.8v5.25h-16.95v-5.25h5.25l-2.5-6.5h-13.65l-2.5 6.5h5.75v5.25h-16.7v-5.25h4.7l10.15-23.85h-4.3v-5.2h20.05v5.2h-4.35zM52.55 22.25h10.05l-4.9-12.65h-0.25zM116.85 31.5l3.1 4.3c-0.933 1.067-1.983 1.933-3.15 2.6-1.167 0.667-2.6 1-4.3 1v0c-3.067 0-5.623-1.077-7.67-3.23-2.053-2.147-3.647-5.487-4.78-10.02v0l-0.5-1.6h-6.15v8.95h5.85v5.2h-18.5v-5.25h6v-23.8h-6v-5.25h20.2c4.033 0 7.243 0.89 9.63 2.67 2.38 1.787 3.57 4.247 3.57 7.38v0c0 2.6-0.757 4.733-2.27 6.4-1.52 1.667-3.68 2.783-6.48 3.35v0l0.55 1.55c0.9 2.733 1.927 4.673 3.08 5.82 1.147 1.153 2.437 1.73 3.87 1.73v0c1.5 0 2.817-0.6 3.95-1.8zM93.4 9.65v10h7.75c1.767 0 3.283-0.443 4.55-1.33 1.267-0.88 1.9-2.17 1.9-3.87v0c0-1.567-0.617-2.76-1.85-3.58-1.233-0.813-2.767-1.22-4.6-1.22v0zM137.75 18.65c4.4 1.233 7.777 2.707 10.13 4.42 2.347 1.72 3.52 3.997 3.52 6.83v0c0 1.933-0.5 3.607-1.5 5.02-1 1.42-2.393 2.513-4.18 3.28-1.78 0.767-3.787 1.15-6.02 1.15v0c-4.267 0-8.367-1.75-12.3-5.25v0 4.55h-5.8v-12l3.95-0.25c1.767 2.333 3.927 4.2 6.48 5.6 2.547 1.4 4.97 2.1 7.27 2.1v0c1.533 0 2.783-0.31 3.75-0.93 0.967-0.613 1.45-1.487 1.45-2.62v0c0-1.267-0.833-2.383-2.5-3.35-1.667-0.967-4.5-1.983-8.5-3.05v0c-4.067-1.1-7.043-2.543-8.93-4.33-1.88-1.78-2.82-4.003-2.82-6.67v0c0-1.867 0.523-3.517 1.57-4.95 1.053-1.433 2.437-2.543 4.15-3.33 1.72-0.78 3.58-1.17 5.58-1.17v0c4.4 0 7.983 1.483 10.75 4.45v0-3.75h5.8v11.75l-3.75 0.2c-1.233-2.4-2.85-4.233-4.85-5.5-2-1.267-4.117-1.9-6.35-1.9v0c-1.767 0-3.21 0.35-4.33 1.05-1.113 0.7-1.67 1.65-1.67 2.85v0c0 1.233 0.69 2.283 2.07 3.15 1.387 0.867 3.73 1.75 7.03 2.65z" fill="#000000" fill-rule="nonzero" stroke="none" stroke-width="1" stroke-linecap="butt" stroke-linejoin="miter" stroke-miterlimit="10" stroke-dasharray="" stroke-dashoffset="0" font-family="none" font-weight="none" font-size="none" text-anchor="none" style="mix-blend-mode: normal" data-fill-palette-color="primary" opacity="1"></path></g></svg></g></svg></g></svg></g></svg></g><g transform="matrix(1,0,0,1,0,0.2335106636155544)"><svg viewBox="0 0 80.75577116704807 93.40426544622427" height="93.40426544622427" width="80.75577116704807"><g><svg xmlns="http://www.w3.org/2000/svg" xmlns:xlink="http://www.w3.org/1999/xlink" version="1.1" x="0" y="0" viewBox="9 1 83 96" enable-background="new 0 0 100 100" xml:space="preserve" height="93.40426544622427" width="80.75577116704807" class="icon-icon-0" data-fill-palette-color="accent" id="icon-0"><g fill="#000000" data-fill-palette-color="accent"><path fill="#000000" d="M71.3 10.01C57.831 10.01 50.55 1 50.55 1s-7.306 9.01-20.774 9.01C17.371 10.01 9 2.528 9 2.528v48.928C9.378 83.682 50.5 97 50.5 97S92 83.682 92 51.456V2.528C92 2.528 83.703 10.01 71.3 10.01z" data-fill-palette-color="accent"></path></g></svg></g></svg></g></svg></g><defs></defs></svg><rect width="395.52" height="74.18145007267582" fill="none" stroke="none" visibility="hidden"></rect></g></svg></g></svg>